<svg viewBox="0 0 500 500" xmlns="http://www.w3.org/2000/svg">
  <defs>
    <path id="text-path-top" d="M 75,250 A 175,175 0 0,1 425,250" fill="none" />
    <path id="text-path-bottom" d="M 85,260 A 170,170 0 0,0 415,260" fill="none" />
    <clipPath id="tie-clip">
      <path d="M 242,225 L 258,225 L 265,340 L 250,360 L 235,340 Z" />
    </clipPath>
  </defs>
  <circle cx="250" cy="250" r="230" fill="#ffffff" stroke="#e2e8f0" strokeWidth="2" />
  <circle cx="250" cy="250" r="215" fill="none" stroke="#1b365d" strokeWidth="1" strokeDasharray="4 4" />
  <polygon points="210,170 290,170 250,395" fill="#ffffff" />
  <path d="M 210,170 L 180,170 L 155,235 L 165,240 L 160,255 L 250,395 Z" fill="#1b365d" />
  <path d="M 290,170 L 320,170 L 345,235 L 335,240 L 340,255 L 250,395 Z" fill="#1b365d" />
  <polygon points="235,200 265,200 258,225 242,225" fill="#1b365d" stroke="#ffffff" strokeWidth="1.5" />
  <path d="M 242,225 L 258,225 L 265,340 L 250,360 L 235,340 Z" fill="#1b365d" stroke="#ffffff" strokeWidth="1.5" />
  <g clipPath="url(#tie-clip)">
    <line x1="210" y1="210" x2="290" y2="250" stroke="#ffffff" strokeWidth="3.5" />
    <line x1="210" y1="230" x2="290" y2="270" stroke="#ffffff" strokeWidth="3.5" />
    <line x1="210" y1="250" x2="290" y2="290" stroke="#ffffff" strokeWidth="3.5" />
    <line x1="210" y1="270" x2="290" y2="310" stroke="#ffffff" strokeWidth="3.5" />
    <line x1="210" y1="290" x2="290" y2="330" stroke="#ffffff" strokeWidth="3.5" />
    <line x1="210" y1="310" x2="290" y2="350" stroke="#ffffff" strokeWidth="3.5" />
    <line x1="210" y1="330" x2="290" y2="370" stroke="#ffffff" strokeWidth="3.5" />
  </g>
  <text fill="#1b365d" fontSize="22.5" fontWeight="900" fontFamily="system-ui, -apple-system, sans-serif" letterSpacing="1.5">
    <textPath href="#text-path-top" startOffset="50%" textAnchor="middle">CAREER GROWTH PLACEMENT</textPath>
  </text>
  <text x="402" y="115" fill="#1b365d" fontSize="13" fontWeight="900" fontFamily="system-ui, -apple-system, sans-serif">TM</text>
  <polygon points="65,242 68,248 75,249 70,254 71,260 65,257 59,260 60,254 55,249 62,248" fill="#1b365d" />
  <polygon points="435,242 438,248 445,249 440,254 441,260 435,257 429,260 430,254 425,249 432,248" fill="#1b365d" />
  <text fill="#1b365d" fontSize="14" fontWeight="600" fontFamily="Georgia, serif" fontStyle="italic">
    <textPath href="#text-path-bottom" startOffset="50%" textAnchor="middle">Your Career Growth, Our Responsibility</textPath>
  </text>
</svg>
